<svg width="81" height="80" viewBox="0 0 81 80" fill="none" xmlns="http://www.w3.org/2000/svg">
<path d="M34.902 58.4007L63.1019 30.2007L57.5019 24.6007L34.902 47.2007L23.502 35.8007L17.902 41.4007L34.902 58.4007ZM40.5019 80.0007C34.9686 80.0007 29.7686 78.9507 24.9019 76.8507C20.0353 74.7507 15.802 71.9007 12.202 68.3007C8.60195 64.7007 5.75195 60.4674 3.65195 55.6007C1.55195 50.7341 0.501953 45.5341 0.501953 40.0007C0.501953 34.4674 1.55195 29.2674 3.65195 24.4007C5.75195 19.5341 8.60195 15.3007 12.202 11.7007C15.802 8.10073 20.0353 5.25073 24.9019 3.15073C29.7686 1.05073 34.9686 0.000732422 40.5019 0.000732422C46.0353 0.000732422 51.2353 1.05073 56.1019 3.15073C60.9686 5.25073 65.202 8.10073 68.8019 11.7007C72.4019 15.3007 75.2519 19.5341 77.3519 24.4007C79.4519 29.2674 80.5019 34.4674 80.5019 40.0007C80.5019 45.5341 79.4519 50.7341 77.3519 55.6007C75.2519 60.4674 72.4019 64.7007 68.8019 68.3007C65.202 71.9007 60.9686 74.7507 56.1019 76.8507C51.2353 78.9507 46.0353 80.0007 40.5019 80.0007ZM40.5019 72.0007C49.4353 72.0007 57.0019 68.9007 63.2019 62.7007C69.4019 56.5007 72.5019 48.9341 72.5019 40.0007C72.5019 31.0674 69.4019 23.5007 63.2019 17.3007C57.0019 11.1007 49.4353 8.00073 40.5019 8.00073C31.5686 8.00073 24.002 11.1007 17.802 17.3007C11.602 23.5007 8.50195 31.0674 8.50195 40.0007C8.50195 48.9341 11.602 56.5007 17.802 62.7007C24.002 68.9007 31.5686 72.0007 40.5019 72.0007Z" fill="#6AC86A"/>
</svg>
