<svg width="201" height="201" viewBox="0 0 201 201" fill="none" xmlns="http://www.w3.org/2000/svg">
<rect width="152.001" height="152.001" rx="33" transform="matrix(-0.916659 0.399671 0.399671 0.916659 139.333 0)" fill="#FF9999"/>
<circle cx="9.20914" cy="9.20914" r="9.20914" transform="matrix(-0.989835 -0.142218 -0.142218 0.989835 150.296 44.1741)" fill="white"/>
<circle cx="9.20914" cy="9.20914" r="9.20914" transform="matrix(-0.989835 -0.142218 -0.142218 0.989835 150.296 44.1741)" fill="white"/>
<circle cx="6.75337" cy="6.75337" r="6.75337" transform="matrix(-0.989835 -0.142218 -0.142218 0.989835 151.698 49.3373)" fill="white"/>
<circle cx="6.75337" cy="6.75337" r="6.75337" transform="matrix(-0.989835 -0.142218 -0.142218 0.989835 151.698 49.3373)" fill="#464646"/>
<circle cx="9.20914" cy="9.20914" r="9.20914" transform="matrix(-0.989835 -0.142218 -0.142218 0.989835 122.949 40.245)" fill="white"/>
<circle cx="9.20914" cy="9.20914" r="9.20914" transform="matrix(-0.989835 -0.142218 -0.142218 0.989835 122.949 40.245)" fill="white"/>
<circle cx="6.75337" cy="6.75337" r="6.75337" transform="matrix(-0.989835 -0.142218 -0.142218 0.989835 124.351 45.4082)" fill="white"/>
<circle cx="6.75337" cy="6.75337" r="6.75337" transform="matrix(-0.989835 -0.142218 -0.142218 0.989835 124.351 45.4082)" fill="#464646"/>
<rect width="84.3625" height="21.7538" rx="10.8769" transform="matrix(-0.989835 -0.142218 -0.142218 0.989835 168.575 81.106)" fill="#4D4D4D"/>
<rect width="57.8334" height="14.8563" rx="7.42814" transform="matrix(-0.989835 -0.142218 -0.142218 0.989835 165.043 87.031)" fill="white"/>
<path d="M22.4733 121.244C20.8387 119.758 18.3089 119.879 16.8229 121.513C15.3369 123.148 15.4574 125.678 17.0921 127.164L22.4733 121.244ZM104.664 115.212L72.0432 113.615L70.4454 146.235L103.066 147.833L104.664 115.212ZM17.0921 127.164C23.7011 133.172 35.1587 140.703 48.3122 143.859C61.6231 147.053 76.9023 145.781 90.2414 133.687L84.868 127.76C73.9346 137.673 61.5664 138.812 50.1786 136.08C38.6336 133.31 28.3414 126.579 22.4733 121.244L17.0921 127.164Z" fill="#3C3C3C"/>
</svg>
